<?xml version="1.0" standalone="no"?>
<!DOCTYPE svg PUBLIC "-//W3C//DTD SVG 20010904//EN"
 "http://www.w3.org/TR/2001/REC-SVG-20010904/DTD/svg10.dtd">
<svg version="1.0" xmlns="http://www.w3.org/2000/svg"
 width="512.000000pt" height="512.000000pt" viewBox="0 0 512.000000 512.000000"
 preserveAspectRatio="xMidYMid meet">
<metadata>
Created by potrace 1.14, written by Peter Selinger 2001-2017
</metadata>
<g transform="translate(0.000000,512.000000) scale(0.100000,-0.100000)"
fill="#000000" stroke="none">
<path d="M2812 4435 c-7 -8 -10 -15 -7 -15 3 0 0 -10 -7 -22 -7 -13 -13 -25
-14 -28 -1 -6 -10 -31 -33 -90 -18 -47 -18 -70 2 -71 21 -1 100 -64 119 -94
46 -75 48 -87 25 -125 -24 -39 -33 -52 -59 -81 -10 -10 -16 -19 -13 -19 3 0
-3 -9 -12 -20 -25 -29 -27 -60 -3 -60 11 0 20 -4 20 -9 0 -5 8 -8 18 -6 32 5
41 -12 23 -50 -19 -40 -25 -42 -53 -15 -12 11 -32 20 -44 20 -13 0 -26 5 -29
10 -4 7 -13 7 -26 0 -10 -6 -19 -7 -19 -2 0 13 -158 -9 -185 -26 -5 -4 -18 -8
-28 -9 -9 -2 -45 -15 -80 -29 -34 -14 -67 -27 -72 -28 -6 -1 -25 -12 -42 -24
-17 -12 -36 -22 -42 -22 -6 0 -11 -4 -11 -10 0 -5 -4 -10 -9 -10 -20 0 -149
-92 -197 -140 -46 -46 -124 -163 -130 -194 -2 -6 -7 -25 -12 -43 -6 -17 -8
-34 -4 -37 3 -3 1 -6 -5 -6 -10 0 -10 -155 0 -195 4 -17 0 -21 -21 -23 -14 -1
-28 -6 -31 -11 -3 -4 -25 -19 -48 -32 -23 -13 -84 -50 -135 -81 -51 -32 -99
-58 -106 -58 -6 0 -12 -5 -12 -12 0 -6 -3 -8 -7 -5 -3 4 -12 2 -19 -4 -7 -5
-25 -12 -40 -15 -16 -3 -33 -9 -39 -13 -8 -6 -82 -25 -141 -37 -7 -1 -36 -18
-65 -38 -33 -22 -57 -32 -63 -27 -6 5 -15 10 -21 10 -57 5 -172 49 -211 82 -8
6 -14 9 -14 6 0 -3 -16 9 -36 27 l-37 34 -66 -40 c-73 -43 -80 -47 -131 -73
-19 -10 -78 -46 -129 -79 -52 -34 -97 -61 -100 -61 -4 0 -12 -4 -19 -8 -6 -5
-12 -5 -12 0 0 4 -4 3 -8 -3 -4 -6 -28 -23 -54 -38 -27 -15 -51 -32 -54 -38
-7 -11 39 -59 59 -62 7 -1 18 -5 24 -9 7 -5 17 -6 22 -2 5 3 12 1 16 -5 4 -6
11 -8 16 -5 5 4 9 2 9 -3 0 -5 45 -7 100 -6 57 2 100 -1 100 -6 0 -23 -120
-150 -141 -150 -10 0 -21 -5 -24 -10 -4 -6 -10 -8 -15 -5 -5 3 -22 -3 -37 -13
-61 -42 -124 -82 -131 -82 -4 0 -13 -9 -19 -19 -10 -16 -9 -26 3 -50 15 -30
16 -30 43 -16 16 8 30 12 32 10 3 -2 17 -6 31 -9 15 -2 39 -15 53 -29 l27 -24
-31 -12 -30 -13 3 -83 c2 -45 6 -88 10 -94 4 -6 3 -11 -3 -11 -6 0 -6 -11 -1
-30 10 -33 10 -36 10 -50 0 -16 14 -12 38 10 12 12 22 17 23 13 0 -4 2 -15 5
-23 2 -8 7 -31 12 -50 8 -32 9 -33 19 -15 20 36 26 105 25 282 -1 237 -2 235
118 333 30 25 57 47 60 50 3 3 30 25 60 50 30 24 71 59 90 77 33 32 81 48 138
47 12 0 22 2 22 6 0 6 22 7 173 11 55 1 102 -2 105 -7 7 -10 23 -14 60 -18 35
-4 42 -17 32 -60 -5 -22 -7 -44 -4 -48 3 -4 1 -8 -3 -8 -5 0 -9 -10 -10 -22
-3 -56 -9 -88 -16 -88 -4 0 -7 -6 -6 -12 5 -30 -15 -88 -37 -109 -13 -12 -27
-20 -30 -16 -3 3 -11 1 -18 -4 -6 -5 -36 -25 -66 -44 -30 -19 -60 -39 -67 -45
-7 -5 -17 -10 -23 -10 -13 0 -150 -131 -150 -143 0 -4 -9 -17 -20 -29 -11 -12
-26 -34 -32 -50 -7 -15 -16 -28 -19 -28 -4 0 -10 -11 -13 -25 -4 -14 -11 -25
-17 -25 -6 0 -8 -4 -5 -9 3 -5 -1 -27 -9 -50 -8 -23 -14 -43 -15 -46 0 -3 0
-6 -1 -7 -1 -2 -3 -14 -4 -28 -2 -14 -8 -41 -13 -61 -5 -21 -8 -66 -6 -100 8
-153 32 -226 114 -362 19 -30 103 -120 143 -152 49 -40 144 -95 163 -95 8 0
14 -4 14 -10 0 -5 9 -10 20 -10 11 0 20 -5 20 -12 0 -6 3 -9 6 -5 3 3 18 1 33
-5 24 -9 57 -18 91 -23 8 -1 22 -5 30 -8 16 -7 155 -2 207 7 18 3 41 10 52 16
11 5 24 9 28 9 29 -7 207 106 278 176 65 63 149 178 138 189 -4 3 -2 6 3 6 11
0 39 63 35 76 -2 4 3 10 9 14 7 4 13 19 13 34 0 14 3 26 7 26 3 0 7 6 8 13 12
133 13 191 1 243 -7 32 -13 64 -14 69 0 6 -4 13 -10 17 -10 8 4 14 47 21 24 4
31 -2 53 -39 14 -24 35 -53 47 -64 21 -20 21 -20 77 12 31 17 58 34 61 38 5 6
90 57 120 73 8 4 42 25 75 47 33 22 71 45 85 52 35 17 69 54 76 83 4 18 31 40
93 77 47 28 88 55 89 60 2 4 8 8 13 8 5 0 33 16 64 35 30 20 82 47 115 62 33
14 60 29 60 32 0 4 10 7 21 8 12 1 30 10 40 19 11 9 19 14 19 11 0 -12 192 93
332 181 152 95 146 83 79 157 -17 19 -31 37 -31 40 0 3 -8 13 -17 23 -36 37
-63 72 -63 81 0 5 -6 11 -13 14 -13 5 -74 101 -125 196 -27 51 -35 118 -19
151 14 27 29 31 32 10 9 -58 15 -80 29 -120 10 -25 18 -49 19 -55 2 -5 7 -16
11 -24 7 -10 5 -12 -5 -6 -8 5 -5 -1 5 -13 11 -12 16 -22 13 -22 -4 0 3 -12
16 -26 12 -14 21 -29 21 -32 -4 -20 98 -128 174 -184 59 -44 171 -100 184 -92
4 3 8 0 8 -5 0 -6 11 -11 23 -11 13 0 27 -3 30 -7 24 -24 264 -19 331 6 11 5
23 8 26 7 10 -2 95 38 135 64 22 14 52 32 68 40 34 17 125 102 166 157 57 75
100 189 118 313 3 19 7 37 9 39 2 2 -1 12 -7 22 -6 12 -6 19 0 19 5 0 8 8 6
18 -2 9 -4 17 -5 17 -1 0 -4 20 -6 45 -4 37 -12 76 -29 130 -3 10 -26 65 -31
75 -6 12 -20 35 -54 90 -32 53 -179 198 -180 177 0 -4 -5 1 -11 11 -5 9 -17
17 -24 17 -8 0 -15 5 -15 11 0 5 -4 7 -10 4 -5 -3 -10 -1 -10 4 0 6 -4 11 -9
11 -5 0 -29 9 -55 20 -25 12 -48 21 -51 21 -2 0 -19 5 -37 10 -18 6 -42 12
-53 14 -11 2 -31 6 -45 10 -14 4 -31 7 -37 7 -17 2 -16 13 2 28 23 19 18 29
-12 25 -16 -2 -53 -7 -83 -10 -57 -6 -93 -12 -97 -15 -2 -2 -6 -3 -10 -4 -64
-14 -213 -83 -213 -98 0 -5 -4 -7 -9 -3 -5 3 -12 1 -16 -5 -3 -5 -12 -10 -20
-10 -12 0 -12 7 1 48 8 26 16 53 18 60 1 7 8 18 14 24 7 7 12 20 12 30 0 10 4
18 8 18 4 0 16 13 25 30 10 16 39 42 64 57 l45 26 -5 57 c-3 37 -14 71 -31 98
-14 23 -26 44 -26 48 0 13 -117 92 -145 98 -34 7 -135 50 -135 58 0 5 -4 7 -9
4 -5 -3 -28 1 -51 9 -24 8 -45 13 -48 11 -2 -3 -11 2 -20 10 -8 9 -23 13 -33
11 -11 -3 -19 -1 -19 4 0 5 -3 8 -7 8 -5 -1 -10 -1 -13 1 -3 1 -16 3 -30 5
-45 8 -55 10 -67 18 -7 5 -13 6 -13 4 0 -3 -17 -1 -37 4 -21 6 -51 12 -68 15
-16 3 -41 9 -55 14 -14 6 -46 12 -71 14 -25 1 -51 6 -56 9 -6 4 -37 9 -69 11
-32 3 -72 7 -89 11 -20 3 -34 0 -43 -10z m1493 -993 c5 -4 15 -7 20 -8 62 -13
77 -19 134 -58 55 -37 107 -91 124 -128 6 -16 15 -28 19 -28 5 0 8 -9 8 -20 0
-11 4 -20 8 -20 5 0 9 -6 9 -12 0 -7 4 -29 8 -48 19 -86 9 -236 -16 -265 -5
-5 -9 -15 -9 -22 0 -13 -31 -63 -57 -91 -7 -7 -16 -19 -20 -27 -14 -24 -176
-118 -228 -131 -61 -17 -148 -19 -192 -5 -18 5 -33 7 -33 5 0 -3 -6 -2 -12 3
-7 4 -15 8 -18 9 -22 3 -90 38 -90 45 0 5 -5 9 -11 9 -10 0 -91 79 -114 111
-26 37 -63 124 -73 174 -14 65 -3 195 16 195 22 -1 34 -18 24 -37 -8 -14 -8
-23 0 -31 9 -9 9 -12 0 -12 -11 0 -10 -12 4 -90 12 -66 16 -77 62 -150 51 -80
62 -89 95 -78 15 6 27 13 27 17 0 3 12 12 28 19 40 18 82 60 125 125 35 52 40
56 60 45 35 -18 76 -19 103 -1 26 16 60 71 50 80 -2 3 -1 16 4 29 5 13 6 24 1
24 -5 0 -14 14 -21 30 -7 17 -26 41 -41 55 -16 13 -29 29 -29 35 0 6 -4 8 -10
5 -5 -3 -10 -2 -10 3 0 5 -31 42 -70 83 -38 40 -70 74 -70 76 0 1 -11 13 -25
27 -25 26 -25 62 1 52 7 -3 16 -1 19 4 6 9 184 12 200 2z m-2445 -1016 c36 -4
81 -9 100 -12 19 -3 46 -7 60 -9 21 -3 58 -10 95 -19 48 -12 63 -21 79 -49 10
-18 27 -46 37 -64 l18 -32 -35 3 c-19 1 -37 -1 -40 -6 -3 -5 -11 -4 -18 1 -7
6 -16 8 -19 5 -3 -4 -36 -8 -72 -9 -36 -2 -91 -6 -123 -9 -31 -4 -79 -9 -107
-12 -27 -2 -63 -7 -78 -10 -16 -3 -38 -7 -50 -8 -62 -8 -145 -22 -149 -26 -2
-1 -20 -3 -41 -6 -31 -3 -37 -1 -35 14 2 9 7 22 11 27 14 18 112 170 112 175
1 11 31 47 43 51 16 5 121 3 212 -5z m-689 -860 c5 3 9 1 9 -4 0 -5 19 -12 41
-15 49 -6 65 -19 54 -44 -5 -10 -9 -21 -10 -25 -2 -5 -3 -9 -5 -10 -8 -10 -13
-53 -12 -110 0 -59 4 -74 34 -122 19 -31 38 -53 42 -49 3 3 6 2 6 -4 0 -6 17
-19 38 -29 105 -51 206 -36 292 45 62 59 84 113 84 206 1 44 -3 90 -7 102 -9
25 -2 28 83 39 58 7 90 8 96 1 9 -9 18 -98 17 -172 -1 -97 -5 -125 -16 -125
-4 0 -5 -4 -2 -10 14 -22 -72 -146 -133 -190 -54 -40 -129 -79 -136 -73 -3 4
-6 1 -6 -6 0 -7 -4 -10 -9 -7 -4 3 -23 1 -42 -5 -48 -14 -161 -14 -187 0 -12
6 -22 10 -22 7 0 -17 -120 54 -162 95 -15 15 -31 29 -36 31 -10 4 -82 121 -99
161 -28 64 -31 174 -7 257 18 63 28 72 62 59 13 -5 28 -7 33 -3z"/>
</g>
</svg>
